<svg width="186" height="76" viewBox="0 0 186 76" fill="none" xmlns="http://www.w3.org/2000/svg">
<path d="M18.8906 35.1875L12.7969 41.75V58H1.07812V1.125H12.7969V26.9062L17.9531 19.8359L32.4453 1.125H46.8594L26.6641 26.3984L47.4453 58H33.5L18.8906 35.1875ZM89.1641 37.2578C89.1641 43.7682 87.6797 48.9896 84.7109 52.9219C81.7682 56.8281 77.7839 58.7812 72.7578 58.7812C68.487 58.7812 65.0365 57.2969 62.4062 54.3281V74.25H51.1172V15.7344H61.5859L61.9766 19.875C64.7109 16.5938 68.2786 14.9531 72.6797 14.9531C77.888 14.9531 81.9375 16.8802 84.8281 20.7344C87.7188 24.5885 89.1641 29.901 89.1641 36.6719V37.2578ZM77.875 36.4375C77.875 32.5052 77.1719 29.4714 75.7656 27.3359C74.3854 25.2005 72.3672 24.1328 69.7109 24.1328C66.1693 24.1328 63.7344 25.487 62.4062 28.1953V45.5C63.7865 48.2865 66.2474 49.6797 69.7891 49.6797C75.1797 49.6797 77.875 45.2656 77.875 36.4375ZM120.688 58C120.167 56.9844 119.789 55.7214 119.555 54.2109C116.82 57.2578 113.266 58.7812 108.891 58.7812C104.75 58.7812 101.312 57.5833 98.5781 55.1875C95.8698 52.7917 94.5156 49.7708 94.5156 46.125C94.5156 41.6458 96.1693 38.2083 99.4766 35.8125C102.81 33.4167 107.615 32.2057 113.891 32.1797H119.086V29.7578C119.086 27.8047 118.578 26.2422 117.562 25.0703C116.573 23.8984 114.997 23.3125 112.836 23.3125C110.935 23.3125 109.438 23.7682 108.344 24.6797C107.276 25.5911 106.742 26.8411 106.742 28.4297H95.4531C95.4531 25.9818 96.2083 23.7161 97.7188 21.6328C99.2292 19.5495 101.365 17.9219 104.125 16.75C106.885 15.5521 109.984 14.9531 113.422 14.9531C118.63 14.9531 122.758 16.2682 125.805 18.8984C128.878 21.5026 130.414 25.1745 130.414 29.9141V48.2344C130.44 52.2448 131 55.2786 132.094 57.3359V58H120.688ZM111.352 50.1484C113.018 50.1484 114.555 49.7839 115.961 49.0547C117.367 48.2995 118.409 47.2969 119.086 46.0469V38.7812H114.867C109.216 38.7812 106.208 40.7344 105.844 44.6406L105.805 45.3047C105.805 46.7109 106.299 47.8698 107.289 48.7812C108.279 49.6927 109.633 50.1484 111.352 50.1484ZM154.242 42.0234L162.055 15.7344H174.164L157.172 64.5625L156.234 66.7891C153.708 72.3099 149.542 75.0703 143.734 75.0703C142.094 75.0703 140.427 74.8229 138.734 74.3281V65.7734L140.453 65.8125C142.589 65.8125 144.177 65.487 145.219 64.8359C146.286 64.1849 147.12 63.1042 147.719 61.5938L149.047 58.1172L134.242 15.7344H146.391L154.242 42.0234ZM172.641 52.4531C172.641 50.6562 173.24 49.1979 174.438 48.0781C175.661 46.9583 177.185 46.3984 179.008 46.3984C180.857 46.3984 182.38 46.9583 183.578 48.0781C184.802 49.1979 185.414 50.6562 185.414 52.4531C185.414 54.224 184.815 55.6693 183.617 56.7891C182.419 57.8828 180.883 58.4297 179.008 58.4297C177.159 58.4297 175.635 57.8828 174.438 56.7891C173.24 55.6693 172.641 54.224 172.641 52.4531Z" fill="white"/>
<path d="M18.8906 35.1875L19.1012 35.0527L18.9271 34.7808L18.7074 35.0174L18.8906 35.1875ZM12.7969 41.75L12.6137 41.5799L12.5469 41.6518V41.75H12.7969ZM12.7969 58V58.25H13.0469V58H12.7969ZM1.07812 58H0.828125V58.25H1.07812V58ZM1.07812 1.125V0.875H0.828125V1.125H1.07812ZM12.7969 1.125H13.0469V0.875H12.7969V1.125ZM12.7969 26.9062H12.5469V27.6733L12.9989 27.0536L12.7969 26.9062ZM17.9531 19.8359L17.7554 19.6828L17.7511 19.6886L17.9531 19.8359ZM32.4453 1.125V0.875H32.3227L32.2477 0.971914L32.4453 1.125ZM46.8594 1.125L47.0547 1.28106L47.3792 0.875H46.8594V1.125ZM26.6641 26.3984L26.4688 26.2424L26.3555 26.3842L26.4552 26.5358L26.6641 26.3984ZM47.4453 58V58.25H47.9089L47.6542 57.8626L47.4453 58ZM33.5 58L33.2895 58.1348L33.3632 58.25H33.5V58ZM18.7074 35.0174L12.6137 41.5799L12.9801 41.9201L19.0738 35.3576L18.7074 35.0174ZM12.5469 41.75V58H13.0469V41.75H12.5469ZM12.7969 57.75H1.07812V58.25H12.7969V57.75ZM1.32812 58V1.125H0.828125V58H1.32812ZM1.07812 1.375H12.7969V0.875H1.07812V1.375ZM12.5469 1.125V26.9062H13.0469V1.125H12.5469ZM12.9989 27.0536L18.1551 19.9832L17.7511 19.6886L12.5949 26.7589L12.9989 27.0536ZM18.1508 19.989L32.643 1.27808L32.2477 0.971914L17.7555 19.6829L18.1508 19.989ZM32.4453 1.375H46.8594V0.875H32.4453V1.375ZM46.6641 0.968937L26.4688 26.2424L26.8594 26.5545L47.0547 1.28106L46.6641 0.968937ZM26.4552 26.5358L47.2364 58.1374L47.6542 57.8626L26.8729 26.2611L26.4552 26.5358ZM47.4453 57.75H33.5V58.25H47.4453V57.75ZM33.7105 57.8652L19.1012 35.0527L18.6801 35.3223L33.2895 58.1348L33.7105 57.8652ZM84.7109 52.9219L84.5114 52.7712L84.5113 52.7715L84.7109 52.9219ZM62.4062 54.3281L62.5934 54.1623L62.1562 53.669V54.3281H62.4062ZM62.4062 74.25V74.5H62.6562V74.25H62.4062ZM51.1172 74.25H50.8672V74.5H51.1172V74.25ZM51.1172 15.7344V15.4844H50.8672V15.7344H51.1172ZM61.5859 15.7344L61.8348 15.7109L61.8135 15.4844H61.5859V15.7344ZM61.9766 19.875L61.7277 19.8985L61.7841 20.4965L62.1686 20.035L61.9766 19.875ZM84.8281 20.7344L84.6281 20.8844L84.8281 20.7344ZM75.7656 27.3359L75.5557 27.4716L75.5568 27.4734L75.7656 27.3359ZM62.4062 28.1953L62.1818 28.0852L62.1562 28.1373V28.1953H62.4062ZM62.4062 45.5H62.1562V45.5585L62.1822 45.611L62.4062 45.5ZM88.9141 37.2578C88.9141 43.7313 87.4383 48.8944 84.5114 52.7712L84.9105 53.0725C87.9211 49.0847 89.4141 43.8052 89.4141 37.2578H88.9141ZM84.5113 52.7715C81.6173 56.613 77.7079 58.5312 72.7578 58.5312V59.0312C77.8598 59.0312 81.9192 57.0433 84.9106 53.0723L84.5113 52.7715ZM72.7578 58.5312C68.5523 58.5312 65.1722 57.0731 62.5934 54.1623L62.2191 54.4939C64.9007 57.5207 68.4216 59.0312 72.7578 59.0312V58.5312ZM62.1562 54.3281V74.25H62.6562V54.3281H62.1562ZM62.4062 74H51.1172V74.5H62.4062V74ZM51.3672 74.25V15.7344H50.8672V74.25H51.3672ZM51.1172 15.9844H61.5859V15.4844H51.1172V15.9844ZM61.337 15.7579L61.7277 19.8985L62.2255 19.8515L61.8348 15.7109L61.337 15.7579ZM62.1686 20.035C64.8539 16.8128 68.3502 15.2031 72.6797 15.2031V14.7031C68.2071 14.7031 64.568 16.3747 61.7845 19.715L62.1686 20.035ZM72.6797 15.2031C77.8167 15.2031 81.789 17.0989 84.6281 20.8844L85.0281 20.5844C82.086 16.6616 77.9593 14.7031 72.6797 14.7031V15.2031ZM84.6281 20.8844C87.4755 24.6808 88.9141 29.9338 88.9141 36.6719H89.4141C89.4141 29.8683 87.962 24.4963 85.0281 20.5844L84.6281 20.8844ZM88.9141 36.6719V37.2578H89.4141V36.6719H88.9141ZM78.125 36.4375C78.125 32.4807 77.4184 29.3911 75.9744 27.1984L75.5568 27.4734C76.9254 29.5516 77.625 32.5297 77.625 36.4375H78.125ZM75.9756 27.2002C74.5469 24.9898 72.4475 23.8828 69.7109 23.8828V24.3828C72.2869 24.3828 74.2239 25.4112 75.5557 27.4716L75.9756 27.2002ZM69.7109 23.8828C67.9089 23.8828 66.3704 24.2273 65.107 24.93C63.8413 25.6339 62.8664 26.6893 62.1818 28.0852L62.6307 28.3054C63.2743 26.993 64.1809 26.0171 65.35 25.3669C66.5216 24.7154 67.9713 24.3828 69.7109 24.3828V23.8828ZM62.1562 28.1953V45.5H62.6562V28.1953H62.1562ZM62.1822 45.611C62.8922 47.0444 63.8856 48.1286 65.1639 48.8523C66.4403 49.5749 67.9858 49.9297 69.7891 49.9297V49.4297C68.0507 49.4297 66.5948 49.0878 65.4103 48.4172C64.2276 47.7477 63.3005 46.7421 62.6303 45.389L62.1822 45.611ZM69.7891 49.9297C72.567 49.9297 74.6715 48.7846 76.0669 46.4994C77.45 44.2343 78.125 40.8689 78.125 36.4375H77.625C77.625 40.8343 76.9524 44.0899 75.6402 46.2389C74.3402 48.3678 72.4017 49.4297 69.7891 49.4297V49.9297ZM120.688 58L120.465 58.1141L120.535 58.25H120.688V58ZM119.555 54.2109L119.802 54.1726L119.721 53.6515L119.369 54.044L119.555 54.2109ZM98.5781 55.1875L98.4125 55.3748L98.4134 55.3755L98.5781 55.1875ZM99.4766 35.8125L99.3307 35.6095L99.3299 35.61L99.4766 35.8125ZM113.891 32.1797V31.9297L113.89 31.9297L113.891 32.1797ZM119.086 32.1797V32.4297H119.336V32.1797H119.086ZM117.562 25.0703L117.371 25.2316L117.374 25.234L117.562 25.0703ZM108.344 24.6797L108.184 24.4876L108.181 24.4895L108.344 24.6797ZM106.742 28.4297V28.6797H106.992V28.4297H106.742ZM95.4531 28.4297H95.2031V28.6797H95.4531V28.4297ZM104.125 16.75L104.223 16.9801L104.225 16.9793L104.125 16.75ZM125.805 18.8984L125.641 19.0877L125.643 19.0892L125.805 18.8984ZM130.414 48.2344H130.164V48.236L130.414 48.2344ZM132.094 57.3359H132.344V57.2736L132.314 57.2186L132.094 57.3359ZM132.094 58V58.25H132.344V58H132.094ZM115.961 49.0547L116.076 49.2766L116.079 49.2749L115.961 49.0547ZM119.086 46.0469L119.306 46.1659L119.336 46.1102V46.0469H119.086ZM119.086 38.7812H119.336V38.5312H119.086V38.7812ZM105.844 44.6406L105.595 44.6174L105.594 44.6259L105.844 44.6406ZM105.805 45.3047L105.555 45.29L105.555 45.2973V45.3047H105.805ZM107.289 48.7812L107.458 48.5974L107.289 48.7812ZM120.91 57.8859C120.405 56.9006 120.033 55.665 119.802 54.1726L119.308 54.2493C119.545 55.7777 119.929 57.0682 120.465 58.1141L120.91 57.8859ZM119.369 54.044C116.685 57.034 113.2 58.5312 108.891 58.5312V59.0312C113.331 59.0312 116.955 57.4816 119.741 54.3779L119.369 54.044ZM108.891 58.5312C104.802 58.5312 101.425 57.3498 98.7429 54.9995L98.4134 55.3755C101.2 57.8169 104.698 59.0312 108.891 59.0312V58.5312ZM98.7438 55.0003C96.0896 52.6523 94.7656 49.6999 94.7656 46.125H94.2656C94.2656 49.8418 95.65 52.931 98.4125 55.3747L98.7438 55.0003ZM94.7656 46.125C94.7656 41.717 96.3878 38.3587 99.6232 36.015L99.3299 35.61C95.9507 38.0579 94.2656 41.5747 94.2656 46.125H94.7656ZM99.6225 36.0155C102.897 33.6622 107.642 32.4556 113.892 32.4297L113.89 31.9297C107.587 31.9558 102.723 33.1711 99.3307 35.6095L99.6225 36.0155ZM113.891 32.4297H119.086V31.9297H113.891V32.4297ZM119.336 32.1797V29.7578H118.836V32.1797H119.336ZM119.336 29.7578C119.336 27.7606 118.816 26.1348 117.751 24.9066L117.374 25.234C118.34 26.3496 118.836 27.8487 118.836 29.7578H119.336ZM117.754 24.909C116.699 23.6607 115.04 23.0625 112.836 23.0625V23.5625C114.955 23.5625 116.446 24.1362 117.371 25.2316L117.754 24.909ZM112.836 23.0625C110.896 23.0625 109.336 23.5278 108.184 24.4876L108.504 24.8717C109.539 24.0087 110.974 23.5625 112.836 23.5625V23.0625ZM108.181 24.4895C107.05 25.4551 106.492 26.7788 106.492 28.4297H106.992C106.992 26.9035 107.502 25.7272 108.506 24.8698L108.181 24.4895ZM106.742 28.1797H95.4531V28.6797H106.742V28.1797ZM95.7031 28.4297C95.7031 26.0373 96.44 23.8225 97.9212 21.7796L97.5163 21.4861C95.9767 23.6098 95.2031 25.9263 95.2031 28.4297H95.7031ZM97.9212 21.7796C99.4007 19.7387 101.497 18.1372 104.223 16.9801L104.027 16.5199C101.232 17.7065 99.0576 19.3602 97.5163 21.4861L97.9212 21.7796ZM104.225 16.9793C106.949 15.7969 110.014 15.2031 113.422 15.2031V14.7031C109.955 14.7031 106.821 15.3073 104.025 16.5207L104.225 16.9793ZM113.422 15.2031C118.588 15.2031 122.652 16.507 125.641 19.0877L125.968 18.7092C122.864 16.0294 118.672 14.7031 113.422 14.7031V15.2031ZM125.643 19.0892C128.65 21.6373 130.164 25.2336 130.164 29.9141H130.664C130.664 25.1154 129.105 21.3679 125.966 18.7077L125.643 19.0892ZM130.164 29.9141V48.2344H130.664V29.9141H130.164ZM130.164 48.236C130.19 52.2615 130.751 55.3433 131.873 57.4533L132.314 57.2186C131.249 55.214 130.69 52.2281 130.664 48.2328L130.164 48.236ZM131.844 57.3359V58H132.344V57.3359H131.844ZM132.094 57.75H120.688V58.25H132.094V57.75ZM111.352 50.3984C113.056 50.3984 114.632 50.0252 116.076 49.2766L115.846 48.8327C114.477 49.5425 112.98 49.8984 111.352 49.8984V50.3984ZM116.079 49.2749C117.523 48.4996 118.603 47.464 119.306 46.1659L118.866 45.9278C118.215 47.1297 117.211 48.0994 115.843 48.8344L116.079 49.2749ZM119.336 46.0469V38.7812H118.836V46.0469H119.336ZM119.086 38.5312H114.867V39.0312H119.086V38.5312ZM114.867 38.5312C112.019 38.5312 109.798 39.0224 108.237 40.0364C106.662 41.0589 105.783 42.5963 105.595 44.6174L106.093 44.6639C106.269 42.7787 107.076 41.3864 108.509 40.4558C109.955 39.5166 112.064 39.0312 114.867 39.0312V38.5312ZM105.594 44.6259L105.555 45.29L106.054 45.3194L106.093 44.6553L105.594 44.6259ZM105.555 45.3047C105.555 46.7772 106.076 48.004 107.12 48.9651L107.458 48.5974C106.523 47.7356 106.055 46.6446 106.055 45.3047H105.555ZM107.12 48.9651C108.167 49.9299 109.588 50.3984 111.352 50.3984V49.8984C109.678 49.8984 108.39 49.4555 107.458 48.5974L107.12 48.9651ZM154.242 42.0234L154.003 42.095L154.243 42.899L154.482 42.0947L154.242 42.0234ZM162.055 15.7344V15.4844H161.868L161.815 15.6632L162.055 15.7344ZM174.164 15.7344L174.4 15.8165L174.516 15.4844H174.164V15.7344ZM157.172 64.5625L157.402 64.6595L157.405 64.6522L157.408 64.6447L157.172 64.5625ZM156.234 66.7891L156.462 66.8931L156.465 66.8861L156.234 66.7891ZM138.734 74.3281H138.484V74.5155L138.664 74.5681L138.734 74.3281ZM138.734 65.7734L138.74 65.5235L138.484 65.5177V65.7734H138.734ZM140.453 65.8125L140.447 66.0625H140.453V65.8125ZM145.219 64.8359L145.089 64.6225L145.086 64.6239L145.219 64.8359ZM147.719 61.5938L147.951 61.6859L147.952 61.683L147.719 61.5938ZM149.047 58.1172L149.28 58.2064L149.313 58.121L149.283 58.0347L149.047 58.1172ZM134.242 15.7344V15.4844H133.89L134.006 15.8168L134.242 15.7344ZM146.391 15.7344L146.63 15.6628L146.577 15.4844H146.391V15.7344ZM154.482 42.0947L162.294 15.8056L161.815 15.6632L154.003 41.9522L154.482 42.0947ZM162.055 15.9844H174.164V15.4844H162.055V15.9844ZM173.928 15.6522L156.936 64.4803L157.408 64.6447L174.4 15.8165L173.928 15.6522ZM156.941 64.4655L156.004 66.692L156.465 66.8861L157.402 64.6595L156.941 64.4655ZM156.007 66.685C154.759 69.4122 153.114 71.4422 151.077 72.7916C149.041 74.1405 146.597 74.8203 143.734 74.8203V75.3203C146.679 75.3203 149.222 74.6199 151.353 73.2084C153.483 71.7974 155.183 69.6868 156.462 66.8931L156.007 66.685ZM143.734 74.8203C142.119 74.8203 140.476 74.5768 138.805 74.0882L138.664 74.5681C140.378 75.069 142.068 75.3203 143.734 75.3203V74.8203ZM138.984 74.3281V65.7734H138.484V74.3281H138.984ZM138.729 66.0234L140.447 66.0624L140.459 65.5626L138.74 65.5235L138.729 66.0234ZM140.453 66.0625C142.605 66.0625 144.25 65.7361 145.351 65.0479L145.086 64.6239C144.104 65.2379 142.572 65.5625 140.453 65.5625V66.0625ZM145.349 65.0494C146.475 64.3626 147.338 63.2316 147.951 61.6859L147.486 61.5016C146.901 62.9767 146.098 64.0071 145.089 64.6225L145.349 65.0494ZM147.952 61.683L149.28 58.2064L148.813 58.028L147.485 61.5045L147.952 61.683ZM149.283 58.0347L134.478 15.6519L134.006 15.8168L148.811 58.1996L149.283 58.0347ZM134.242 15.9844H146.391V15.4844H134.242V15.9844ZM146.151 15.8059L154.003 42.095L154.482 41.9519L146.63 15.6628L146.151 15.8059ZM174.438 48.0781L174.269 47.8937L174.267 47.8955L174.438 48.0781ZM183.578 48.0781L183.407 48.2608L183.409 48.2626L183.578 48.0781ZM183.617 56.7891L183.786 56.9737L183.788 56.9717L183.617 56.7891ZM174.438 56.7891L174.267 56.9717L174.269 56.9737L174.438 56.7891ZM172.891 52.4531C172.891 50.7181 173.466 49.3285 174.608 48.2608L174.267 47.8955C173.013 49.0674 172.391 50.5944 172.391 52.4531H172.891ZM174.606 48.2626C175.779 47.1893 177.241 46.6484 179.008 46.6484V46.1484C177.129 46.1484 175.544 46.7274 174.269 47.8937L174.606 48.2626ZM179.008 46.6484C180.802 46.6484 182.262 47.1899 183.407 48.2608L183.749 47.8955C182.499 46.7268 180.911 46.1484 179.008 46.1484V46.6484ZM183.409 48.2626C184.577 49.3308 185.164 50.7199 185.164 52.4531H185.664C185.664 50.5926 185.027 49.0651 183.747 47.8937L183.409 48.2626ZM185.164 52.4531C185.164 54.1609 184.589 55.538 183.446 56.6064L183.788 56.9717C185.041 55.8006 185.664 54.287 185.664 52.4531H185.164ZM183.449 56.6044C182.304 57.6496 180.831 58.1797 179.008 58.1797V58.6797C180.935 58.6797 182.535 58.116 183.786 56.9737L183.449 56.6044ZM179.008 58.1797C177.212 58.1797 175.751 57.6502 174.606 56.6044L174.269 56.9737C175.519 58.1154 177.106 58.6797 179.008 58.6797V58.1797ZM174.608 56.6064C173.465 55.538 172.891 54.1609 172.891 52.4531H172.391C172.391 54.287 173.014 55.8006 174.267 56.9717L174.608 56.6064Z" fill="white"/>
</svg>
