<svg width="360" height="360" viewBox="0 0 360 360" fill="none" xmlns="http://www.w3.org/2000/svg">
<rect x="0.5" y="0.5" width="156.5" height="156.5" stroke="#939597"/>
<rect x="203" y="0.5" width="156.5" height="156.5" stroke="#939597"/>
<rect x="28.125" y="28.125" width="101.25" height="101.25" fill="#939597"/>
<rect x="230.625" y="28.125" width="101.25" height="101.25" fill="#939597"/>
<rect x="0.5" y="203" width="156.5" height="156.5" stroke="#939597"/>
<rect x="28.125" y="230.625" width="101.25" height="101.25" fill="#939597"/>
<rect x="202.5" y="202.5" width="22.5" height="22.5" fill="#C4C4C4"/>
<rect x="202.5" y="270" width="22.5" height="22.5" fill="#C4C4C4"/>
<rect x="202.5" y="337.5" width="22.5" height="22.5" fill="#C4C4C4"/>
<rect x="236.25" y="236.25" width="22.5" height="22.5" fill="#C4C4C4"/>
<rect x="236.25" y="303.75" width="22.5" height="22.5" fill="#C4C4C4"/>
<rect x="303.75" y="236.25" width="22.5" height="22.5" fill="#C4C4C4"/>
<rect x="303.75" y="303.75" width="22.5" height="22.5" fill="#C4C4C4"/>
<rect x="337.5" y="202.5" width="22.5" height="22.5" fill="#C4C4C4"/>
<rect x="337.5" y="270" width="22.5" height="22.5" fill="#C4C4C4"/>
<rect x="337.5" y="337.5" width="22.5" height="22.5" fill="#C4C4C4"/>
<rect x="270" y="202.5" width="22.5" height="22.5" fill="#C4C4C4"/>
<rect x="270" y="270" width="22.5" height="22.5" fill="#C4C4C4"/>
<rect x="270" y="337.5" width="22.5" height="22.5" fill="#C4C4C4"/>
</svg>
