<svg width="217" height="68" viewBox="0 0 217 68" fill="none" xmlns="http://www.w3.org/2000/svg">
<path d="M43.2539 35.2451C43.2539 39.8936 42.502 43.9382 40.998 47.3789C39.4941 50.7969 37.4092 53.5426 34.7432 55.6162L43.0146 62.1104L36.4863 67.8867L25.8906 59.376C24.6829 59.5811 23.4297 59.6836 22.1309 59.6836C18.0065 59.6836 14.3265 58.6924 11.0908 56.71C7.85514 54.7275 5.34863 51.902 3.57129 48.2334C1.79395 44.542 0.89388 40.3037 0.871094 35.5186V33.0576C0.871094 28.1585 1.74837 23.8519 3.50293 20.1377C5.28027 16.4007 7.77539 13.541 10.9883 11.5586C14.224 9.55339 17.9154 8.55078 22.0625 8.55078C26.2096 8.55078 29.8896 9.55339 33.1025 11.5586C36.3382 13.541 38.8333 16.4007 40.5879 20.1377C42.3652 23.8519 43.2539 28.1471 43.2539 33.0234V35.2451ZM32.8633 32.9893C32.8633 27.7712 31.929 23.8063 30.0605 21.0947C28.1921 18.3831 25.526 17.0273 22.0625 17.0273C18.6217 17.0273 15.9671 18.3717 14.0986 21.0605C12.2301 23.7266 11.2845 27.6458 11.2617 32.8184V35.2451C11.2617 40.3265 12.196 44.2686 14.0645 47.0713C15.9329 49.874 18.6217 51.2754 22.1309 51.2754C25.5716 51.2754 28.2148 49.931 30.0605 47.2422C31.9062 44.5306 32.8405 40.5885 32.8633 35.416V32.9893ZM69.1963 40.7822H61.0273V59H50.7734V9.23438H69.2646C75.1436 9.23438 79.6781 10.5446 82.8682 13.165C86.0583 15.7855 87.6533 19.4883 87.6533 24.2734C87.6533 27.6686 86.9128 30.5055 85.4316 32.7842C83.9733 35.04 81.7516 36.8402 78.7666 38.1846L89.5332 58.5215V59H78.5273L69.1963 40.7822ZM61.0273 32.4766H69.2988C71.8737 32.4766 73.8675 31.8271 75.2803 30.5283C76.693 29.2067 77.3994 27.3952 77.3994 25.0938C77.3994 22.7467 76.7272 20.901 75.3828 19.5566C74.0612 18.2122 72.0218 17.54 69.2646 17.54H61.0273V32.4766ZM147.597 0.619996H138.287V46.89H147.597V0.619996ZM103.987 21.06C103.987 15.74 107.767 12.66 112.527 12.66C117.357 12.66 120.997 15.74 120.997 21.06C120.997 26.24 117.357 29.39 112.527 29.39C107.767 29.39 103.987 26.24 103.987 21.06ZM130.027 21.06C130.027 11.54 122.397 4.68 112.527 4.68C102.657 4.68 94.9571 11.54 94.9571 21.06C94.9571 30.44 102.657 37.37 112.527 37.37C122.397 37.37 130.027 30.44 130.027 21.06ZM113.927 56.55V42.34H104.687V63.9H149.207V56.55H113.927ZM164.042 27.85C176.222 26.73 184.132 22.25 187.562 16.09C190.922 22.25 198.902 26.73 211.012 27.85L214.232 20.64C201.982 19.59 195.682 15.32 194.212 10.91H211.432V3.56H163.762V10.91H180.912C179.442 15.32 173.142 19.59 160.962 20.64L164.042 27.85ZM187.422 57.95C178.812 57.95 174.402 56.41 174.402 53.05C174.402 49.69 178.812 48.22 187.422 48.22C196.032 48.22 200.442 49.69 200.442 53.05C200.442 56.41 196.032 57.95 187.422 57.95ZM187.422 41.08C173.492 41.08 165.092 45.49 165.092 53.05C165.092 60.68 173.492 65.02 187.422 65.02C201.352 65.02 209.822 60.68 209.822 53.05C209.822 45.49 201.352 41.08 187.422 41.08ZM158.442 30.3V37.58H216.682V30.3H158.442Z" fill="#939597"/>
</svg>
