<svg width="214" height="68" viewBox="0 0 214 68" fill="none" xmlns="http://www.w3.org/2000/svg">
<path d="M43.2539 35.2451C43.2539 39.8936 42.502 43.9382 40.998 47.3789C39.4941 50.7969 37.4092 53.5426 34.7432 55.6162L43.0146 62.1104L36.4863 67.8867L25.8906 59.376C24.6829 59.5811 23.4297 59.6836 22.1309 59.6836C18.0065 59.6836 14.3265 58.6924 11.0908 56.71C7.85514 54.7275 5.34863 51.902 3.57129 48.2334C1.79395 44.542 0.89388 40.3037 0.871094 35.5186V33.0576C0.871094 28.1585 1.74837 23.8519 3.50293 20.1377C5.28027 16.4007 7.77539 13.541 10.9883 11.5586C14.224 9.55339 17.9154 8.55078 22.0625 8.55078C26.2096 8.55078 29.8896 9.55339 33.1025 11.5586C36.3382 13.541 38.8333 16.4007 40.5879 20.1377C42.3652 23.8519 43.2539 28.1471 43.2539 33.0234V35.2451ZM32.8633 32.9893C32.8633 27.7712 31.929 23.8063 30.0605 21.0947C28.1921 18.3831 25.526 17.0273 22.0625 17.0273C18.6217 17.0273 15.9671 18.3717 14.0986 21.0605C12.2301 23.7266 11.2845 27.6458 11.2617 32.8184V35.2451C11.2617 40.3265 12.196 44.2686 14.0645 47.0713C15.9329 49.874 18.6217 51.2754 22.1309 51.2754C25.5716 51.2754 28.2148 49.931 30.0605 47.2422C31.9062 44.5306 32.8405 40.5885 32.8633 35.416V32.9893ZM69.1963 40.7822H61.0273V59H50.7734V9.23438H69.2646C75.1436 9.23438 79.6781 10.5446 82.8682 13.165C86.0583 15.7855 87.6533 19.4883 87.6533 24.2734C87.6533 27.6686 86.9128 30.5055 85.4316 32.7842C83.9733 35.04 81.7516 36.8402 78.7666 38.1846L89.5332 58.5215V59H78.5273L69.1963 40.7822ZM61.0273 32.4766H69.2988C71.8737 32.4766 73.8675 31.8271 75.2803 30.5283C76.693 29.2067 77.3994 27.3952 77.3994 25.0938C77.3994 22.7467 76.7272 20.901 75.3828 19.5566C74.0612 18.2122 72.0218 17.54 69.2646 17.54H61.0273V32.4766ZM138.707 15.6V21.13H124.427V28.06H138.707V32.89H147.947V0.549997H138.707V8.67H126.877C127.157 6.85 127.297 4.96 127.297 3H98.5271V10.35H117.147C116.027 17.91 109.447 24.07 94.8171 26.94L97.8971 34.36C112.037 31.28 121.137 25.19 125.057 15.6H138.707ZM114.767 57.11V53.05H147.947V35.27H105.457V42.55H138.707V46.19H105.527V64.39H149.277V57.11H114.767ZM178.882 14.48H188.262V6.99H159.562V14.48H169.922V17.63C169.922 28.69 166.562 40.24 157.182 46.19L162.642 52.98C168.452 49.34 172.232 43.04 174.472 35.69C176.572 42.48 180.282 48.01 185.952 51.44L191.342 44.72C182.032 39.26 178.882 28.41 178.882 17.63V14.48ZM191.972 22.53H183.782V30.02H191.972V62.08H200.582V1.6H191.972V22.53ZM204.992 0.479998V64.95H213.742V0.479998H204.992Z" fill="#939597"/>
</svg>
